<?xml version="1.0" encoding="iso-8859-1"?>
<!-- Generator: Adobe Illustrator 19.0.0, SVG Export Plug-In . SVG Version: 6.00 Build 0)  -->
<svg version="1.1" id="Layer_1" xmlns="http://www.w3.org/2000/svg" xmlns:xlink="http://www.w3.org/1999/xlink" x="0px" y="0px"
	 viewBox="0 0 512.001 512.001" style="enable-background:new 0 0 512.001 512.001;" xml:space="preserve">
<g>
	<g>
		<path d="M467.98,200.051l11.678-11.678c43.117-43.117,43.126-112.909,0-156.031c-43.116-43.12-112.906-43.124-156.031,0
			L311.95,44.02l-8.027-8.027c-8.423-8.423-22.081-8.423-30.505,0L40.994,268.416c-8.42,8.418-8.423,22.084,0,30.505l8.027,8.027
			l-16.68,16.68c-43.117,43.119-43.124,112.908,0,156.031c43.119,43.119,112.908,43.124,156.032,0l16.68-16.68l8.027,8.027
			c8.426,8.424,22.081,8.424,30.505,0l232.423-232.423c8.424-8.423,8.424-22.081,0-30.505L467.98,200.051z M288.67,81.75
			l29.661,29.661L116.414,313.329l-29.661-29.661L288.67,81.75z M157.866,449.152c-26.255,26.258-68.758,26.263-95.02,0
			c-26.259-26.257-26.26-68.756,0-95.02l16.679-16.679l73.381,73.381c0.001,0.001,0.003,0.004,0.004,0.006
			c0.001,0.001,0.003,0.003,0.004,0.004l21.63,21.63L157.866,449.152z M168.166,365.081l-21.247-21.246l201.918-201.918
			l21.247,21.246L168.166,365.081z M228.333,425.248l-29.661-29.661l201.918-201.918l29.661,29.661L228.333,425.248z
			 M437.475,169.544l-95.02-95.02l11.678-11.678c26.258-26.257,68.758-26.263,95.02,0c26.258,26.256,26.263,68.758,0,95.02
			L437.475,169.544z"/>
	</g>
</g>
<g>
</g>
<g>
</g>
<g>
</g>
<g>
</g>
<g>
</g>
<g>
</g>
<g>
</g>
<g>
</g>
<g>
</g>
<g>
</g>
<g>
</g>
<g>
</g>
<g>
</g>
<g>
</g>
<g>
</g>
</svg>
