<?xml version="1.0" encoding="iso-8859-1"?>
<!-- Generator: Adobe Illustrator 19.0.0, SVG Export Plug-In . SVG Version: 6.00 Build 0)  -->
<svg version="1.1" id="Layer_1" xmlns="http://www.w3.org/2000/svg" xmlns:xlink="http://www.w3.org/1999/xlink" x="0px" y="0px"
	 viewBox="0 0 512 512" style="enable-background:new 0 0 512 512;" xml:space="preserve">
<g>
	<g>
		<path d="M415.303,193.241h-26.03v-59.948c0-30.35-10.496-60.071-29.555-83.691C340.66,25.983,313.827,9.443,284.163,3.03
			c-18.688-4.04-37.638-4.04-56.327,0c-29.663,6.413-56.496,22.953-75.555,46.572c-19.06,23.619-29.555,53.342-29.555,83.691v59.949
			H96.697c-5.632,0-10.199,4.567-10.199,10.199V461.31c0,4.665,3.166,8.735,7.686,9.884l159.303,40.491
			c0.825,0.21,1.67,0.315,2.513,0.315c0.843,0,1.688-0.105,2.513-0.315l159.303-40.491c4.521-1.148,7.686-5.219,7.686-9.884V203.44
			C425.502,197.807,420.935,193.241,415.303,193.241z M143.125,133.292c0-52.775,37.439-99.173,89.022-110.326
			c15.828-3.422,31.877-3.422,47.705,0c51.583,11.152,89.022,57.551,89.022,110.326v59.948h-23.08v-58.645
			c0-20.48-7.091-40.529-19.967-56.454c-12.876-15.925-30.996-27.058-51.021-31.348c-12.479-2.673-25.134-2.673-37.615,0
			c-20.025,4.29-38.145,15.423-51.021,31.348c-12.875,15.925-19.966,35.974-19.966,56.454v58.645h-23.08V133.292z M325.398,134.596
			v58.645H186.602v-58.645c0-32.511,23.073-61.049,54.863-67.858c9.643-2.065,19.426-2.065,29.069,0
			C302.325,73.547,325.398,102.086,325.398,134.596z M405.104,453.378L256,491.277l-149.104-37.899V213.639h298.209V453.378z"/>
	</g>
</g>
<g>
	<g>
		<path d="M284.314,349.678c13.152-9.185,21.31-24.439,21.31-40.746c0-27.363-22.261-49.624-49.624-49.624
			c-27.363,0-49.624,22.261-49.624,49.624c0,16.307,8.158,31.561,21.311,40.746l-11.014,58.6c-0.561,2.982,0.236,6.059,2.174,8.395
			c1.937,2.336,4.815,3.687,7.849,3.687h58.607c3.035,0,5.912-1.351,7.849-3.687c1.938-2.336,2.735-5.414,2.174-8.395
			L284.314,349.678z M262.944,346.409l10.064,53.554H238.99l10.064-53.554c0.854-4.544-1.456-9.094-5.629-11.086
			c-10.117-4.831-16.654-15.191-16.654-26.391c0-16.116,13.111-29.227,29.227-29.227s29.227,13.111,29.227,29.227
			c0.001,11.201-6.535,21.56-16.653,26.391C264.401,337.315,262.092,341.865,262.944,346.409z"/>
	</g>
</g>
<g>
	<g>
		<path d="M383.485,225.414c-5.632,0-10.199,4.566-10.199,10.199v55.074c0,5.632,4.567,10.199,10.199,10.199
			s10.199-4.567,10.199-10.199v-55.074C393.684,229.981,389.117,225.414,383.485,225.414z"/>
	</g>
</g>
<g>
	<g>
		<path d="M383.485,312.103c-5.632,0-10.199,4.567-10.199,10.199v6.119c0,5.632,4.567,10.199,10.199,10.199
			s10.199-4.567,10.199-10.199v-6.119C393.684,316.669,389.117,312.103,383.485,312.103z"/>
	</g>
</g>
<g>
</g>
<g>
</g>
<g>
</g>
<g>
</g>
<g>
</g>
<g>
</g>
<g>
</g>
<g>
</g>
<g>
</g>
<g>
</g>
<g>
</g>
<g>
</g>
<g>
</g>
<g>
</g>
<g>
</g>
</svg>
