<?xml version="1.0" encoding="utf-8"?>
<!-- Generator: Adobe Illustrator 25.2.1, SVG Export Plug-In . SVG Version: 6.00 Build 0)  -->
<svg version="1.1" id="Layer_1" xmlns="http://www.w3.org/2000/svg" xmlns:xlink="http://www.w3.org/1999/xlink" x="0px" y="0px"
	 viewBox="0 0 19 19" enable-background="new 0 0 19 19" xml:space="preserve">
<g>
	<rect x="16" y="6" fill="none" width="1" height="1"/>
	<rect x="2" y="6" fill="none" width="1" height="1"/>
	<rect x="18" y="8" fill="#4D4D4D" width="1" height="1"/>
	<rect x="17" y="8" fill="#4D4D4D" width="1" height="1"/>
	<rect x="17" y="10" fill="#666666" width="1" height="1"/>
	<rect x="17" y="9" fill="#666666" width="1" height="1"/>
	<rect x="17" y="13" fill="#666666" width="1" height="1"/>
	<rect x="15" y="12" fill="#666666" width="1" height="1"/>
	<rect x="16" y="10" fill="#666666" width="1" height="1"/>
	<rect x="16" y="8" fill="#666666" width="1" height="1"/>
	<rect x="16" y="9" fill="#666666" width="1" height="1"/>
	<rect x="16" y="7" fill="#666666" width="1" height="1"/>
	<rect x="16" y="12" fill="#666666" width="1" height="1"/>
	<rect x="15" y="13" fill="#666666" width="1" height="1"/>
	<rect x="16" y="11" fill="#666666" width="1" height="1"/>
	<rect x="15" y="11" fill="#4D4D4D" width="1" height="1"/>
	<rect x="15" y="7" fill="#4D4D4D" width="1" height="1"/>
	<rect x="14" y="7" fill="#4D4D4D" width="1" height="1"/>
	<rect x="15" y="10" fill="#4D4D4D" width="1" height="1"/>
	<rect x="15" y="8" fill="#4D4D4D" width="1" height="1"/>
	<rect x="15" y="9" fill="#4D4D4D" width="1" height="1"/>
	<rect x="14" y="13" fill="#4D4D4D" width="1" height="1"/>
	<rect x="14" y="12" fill="#4D4D4D" width="1" height="1"/>
	<rect x="13" y="11" fill="#666666" width="1" height="1"/>
	<rect x="12" y="13" fill="#333333" width="1" height="1"/>
	<rect x="12" y="10" fill="#333333" width="1" height="1"/>
	<rect x="12" y="12" fill="#333333" width="1" height="1"/>
	<rect x="13" y="9" fill="#333333" width="1" height="1"/>
	<rect x="13" y="12" fill="#333333" width="1" height="1"/>
	<rect x="12" y="11" fill="#333333" width="1" height="1"/>
	<rect x="13" y="10" fill="#333333" width="1" height="1"/>
	<rect x="12" y="9" fill="#333333" width="1" height="1"/>
	<rect x="13" y="13" fill="#333333" width="1" height="1"/>
	<rect x="14" y="10" fill="#333333" width="1" height="1"/>
	<rect x="14" y="9" fill="#333333" width="1" height="1"/>
	<rect x="14" y="11" fill="#333333" width="1" height="1"/>
	<rect x="14" y="8" fill="#333333" width="1" height="1"/>
	<rect x="13" y="8" fill="#333333" width="1" height="1"/>
	<rect x="12" y="8" fill="#333333" width="1" height="1"/>
	<rect x="13" y="7" fill="#333333" width="1" height="1"/>
	<rect x="12" y="7" fill="#333333" width="1" height="1"/>
	<rect x="11" y="9" fill="#333333" width="1" height="1"/>
	<rect x="11" y="10" fill="#333333" width="1" height="1"/>
	<rect x="11" y="8" fill="#333333" width="1" height="1"/>
	<rect x="10" y="9" fill="#333333" width="1" height="1"/>
	<rect x="10" y="7" fill="#333333" width="1" height="1"/>
	<rect x="11" y="11" fill="#333333" width="1" height="1"/>
	<rect x="10" y="11" fill="#333333" width="1" height="1"/>
	<rect x="9" y="9" fill="#333333" width="1" height="1"/>
	<rect x="9" y="7" fill="#333333" width="1" height="1"/>
	<rect x="9" y="8" fill="#333333" width="1" height="1"/>
	<rect x="9" y="11" fill="#333333" width="1" height="1"/>
	<rect x="9" y="10" fill="#333333" width="1" height="1"/>
	<rect x="11" y="7" fill="#4D4D4D" width="1" height="1"/>
	<rect x="10" y="8" fill="#666666" width="1" height="1"/>
	<rect x="10" y="10" fill="#666666" width="1" height="1"/>
	<rect x="10" y="13" fill="#666666" width="1" height="1"/>
	<rect x="7" y="7" fill="#666666" width="1" height="1"/>
	<rect x="6" y="9" fill="#4D4D4D" width="1" height="1"/>
	<rect x="7" y="10" fill="#4D4D4D" width="1" height="1"/>
	<rect x="4" y="13" fill="#4D4D4D" width="1" height="1"/>
	<rect x="5" y="12" fill="#4D4D4D" width="1" height="1"/>
	<rect x="5" y="13" fill="#4D4D4D" width="1" height="1"/>
	<rect x="7" y="12" fill="#333333" width="1" height="1"/>
	<rect x="8" y="12" fill="#333333" width="1" height="1"/>
	<rect x="10" y="12" fill="#333333" width="1" height="1"/>
	<rect x="9" y="13" fill="#333333" width="1" height="1"/>
	<rect x="11" y="13" fill="#333333" width="1" height="1"/>
	<rect x="11" y="12" fill="#333333" width="1" height="1"/>
	<rect x="9" y="12" fill="#333333" width="1" height="1"/>
	<rect x="8" y="13" fill="#333333" width="1" height="1"/>
	<rect x="7" y="13" fill="#333333" width="1" height="1"/>
	<rect x="6" y="13" fill="#333333" width="1" height="1"/>
	<rect x="6" y="12" fill="#333333" width="1" height="1"/>
	<rect x="6" y="11" fill="#333333" width="1" height="1"/>
	<rect x="8" y="11" fill="#333333" width="1" height="1"/>
	<rect x="8" y="10" fill="#333333" width="1" height="1"/>
	<rect x="7" y="11" fill="#333333" width="1" height="1"/>
	<rect x="8" y="7" fill="#333333" width="1" height="1"/>
	<rect x="8" y="9" fill="#333333" width="1" height="1"/>
	<rect x="8" y="8" fill="#333333" width="1" height="1"/>
	<rect x="6" y="10" fill="#333333" width="1" height="1"/>
	<rect x="7" y="8" fill="#333333" width="1" height="1"/>
	<rect x="7" y="9" fill="#333333" width="1" height="1"/>
	<rect x="5" y="8" fill="#333333" width="1" height="1"/>
	<rect x="5" y="9" fill="#333333" width="1" height="1"/>
	<rect x="5" y="10" fill="#333333" width="1" height="1"/>
	<rect x="5" y="11" fill="#333333" width="1" height="1"/>
	<rect x="6" y="7" fill="#333333" width="1" height="1"/>
	<rect x="6" y="8" fill="#333333" width="1" height="1"/>
	<rect x="4" y="12" fill="#333333" width="1" height="1"/>
	<rect x="3" y="11" fill="#333333" width="1" height="1"/>
	<rect x="3" y="10" fill="#333333" width="1" height="1"/>
	<rect x="5" y="7" fill="#4D4D4D" width="1" height="1"/>
	<rect x="4" y="7" fill="#4D4D4D" width="1" height="1"/>
	<rect x="4" y="8" fill="#4D4D4D" width="1" height="1"/>
	<rect x="4" y="9" fill="#4D4D4D" width="1" height="1"/>
	<rect x="4" y="10" fill="#4D4D4D" width="1" height="1"/>
	<rect x="4" y="11" fill="#4D4D4D" width="1" height="1"/>
	<rect x="3" y="9" fill="#4D4D4D" width="1" height="1"/>
	<rect x="3" y="8" fill="#4D4D4D" width="1" height="1"/>
	<rect x="3" y="7" fill="#4D4D4D" width="1" height="1"/>
	<rect x="7" y="14" fill="#4D4D4D" width="1" height="1"/>
	<rect x="6" y="14" fill="#4D4D4D" width="1" height="1"/>
	<rect x="5" y="14" fill="#4D4D4D" width="1" height="1"/>
	<rect x="16" y="16" fill="#666666" width="1" height="1"/>
	<rect x="15" y="15" fill="#666666" width="1" height="1"/>
	<rect x="14" y="14" fill="#666666" width="1" height="1"/>
	<rect x="12" y="14" fill="#4D4D4D" width="1" height="1"/>
	<rect x="13" y="14" fill="#4D4D4D" width="1" height="1"/>
	<rect x="11" y="14" fill="#333333" width="1" height="1"/>
	<rect x="10" y="14" fill="#333333" width="1" height="1"/>
	<rect x="9" y="14" fill="#333333" width="1" height="1"/>
	<rect x="8" y="14" fill="#333333" width="1" height="1"/>
	<rect x="11" y="15" fill="#4D4D4D" width="1" height="1"/>
	<rect x="10" y="15" fill="#4D4D4D" width="1" height="1"/>
	<rect x="9" y="15" fill="#4D4D4D" width="1" height="1"/>
	<rect x="8" y="15" fill="#4D4D4D" width="1" height="1"/>
	<rect x="7" y="15" fill="#4D4D4D" width="1" height="1"/>
	<rect x="13" y="16" fill="#1A1A1A" width="1" height="1"/>
	<rect x="12" y="15" fill="#666666" width="1" height="1"/>
	<rect x="13" y="15" fill="#666666" width="1" height="1"/>
	<rect x="9" y="17" fill="#333333" width="1" height="1"/>
	<rect x="8" y="18" fill="#4D4D4D" width="1" height="1"/>
	<rect x="8" y="17" fill="#4D4D4D" width="1" height="1"/>
	<rect x="7" y="17" fill="#666666" width="1" height="1"/>
	<rect x="11" y="17" fill="#666666" width="1" height="1"/>
	<rect x="11" y="16" fill="#666666" width="1" height="1"/>
	<rect x="10" y="16" fill="#666666" width="1" height="1"/>
	<rect x="9" y="16" fill="#666666" width="1" height="1"/>
	<rect x="17" y="6" fill="#1A1A1A" width="1" height="1"/>
	<rect x="17" y="5" fill="#666666" width="1" height="1"/>
	<rect x="16" y="5" fill="#666666" width="1" height="1"/>
	<rect x="15" y="6" fill="#666666" width="1" height="1"/>
	<rect x="15" y="5" fill="#666666" width="1" height="1"/>
	<rect x="15" y="3" fill="#666666" width="1" height="1"/>
	<rect x="14" y="6" fill="#4D4D4D" width="1" height="1"/>
	<rect x="14" y="5" fill="#4D4D4D" width="1" height="1"/>
	<rect x="14" y="4" fill="#666666" width="1" height="1"/>
	<rect x="13" y="6" fill="#333333" width="1" height="1"/>
	<rect x="13" y="5" fill="#4D4D4D" width="1" height="1"/>
	<rect x="13" y="4" fill="#333333" width="1" height="1"/>
	<rect x="13" y="3" fill="#666666" width="1" height="1"/>
	<rect x="13" y="1" fill="#666666" width="1" height="1"/>
	<rect x="12" y="6" fill="#333333" width="1" height="1"/>
	<rect x="12" y="5" fill="#4D4D4D" width="1" height="1"/>
	<rect x="12" y="4" fill="#4D4D4D" width="1" height="1"/>
	<rect x="12" y="3" fill="#666666" width="1" height="1"/>
	<rect x="12" y="2" fill="#666666" width="1" height="1"/>
	<rect x="11" y="6" fill="#333333" width="1" height="1"/>
	<rect x="11" y="5" fill="#333333" width="1" height="1"/>
	<rect x="11" y="4" fill="#4D4D4D" width="1" height="1"/>
	<rect x="11" y="3" fill="#4D4D4D" width="1" height="1"/>
	<rect x="11" y="2" fill="#666666" width="1" height="1"/>
	<rect x="11" y="1" fill="#555555" width="1" height="1"/>
	<rect x="11" fill="#555555" width="1" height="1"/>
	<rect x="10" y="6" fill="#333333" width="1" height="1"/>
	<rect x="10" y="5" fill="#333333" width="1" height="1"/>
	<rect x="10" y="4" fill="#4D4D4D" width="1" height="1"/>
	<rect x="10" y="3" fill="#4D4D4D" width="1" height="1"/>
	<rect x="10" y="2" fill="#666666" width="1" height="1"/>
	<rect x="9" y="6" fill="#333333" width="1" height="1"/>
	<rect x="9" y="5" fill="#333333" width="1" height="1"/>
	<rect x="9" y="4" fill="#4D4D4D" width="1" height="1"/>
	<rect x="9" y="3" fill="#4D4D4D" width="1" height="1"/>
	<rect x="9" y="2" fill="#666666" width="1" height="1"/>
	<rect x="9" y="1" fill="#666666" width="1" height="1"/>
	<rect x="8" y="16" fill="#666666" width="1" height="1"/>
	<rect x="8" y="6" fill="#333333" width="1" height="1"/>
	<rect x="8" y="5" fill="#333333" width="1" height="1"/>
	<rect x="8" y="4" fill="#4D4D4D" width="1" height="1"/>
	<rect x="8" y="3" fill="#333333" width="1" height="1"/>
	<rect x="8" y="2" fill="#666666" width="1" height="1"/>
	<rect x="7" y="16" fill="#666666" width="1" height="1"/>
	<rect x="7" y="6" fill="#333333" width="1" height="1"/>
	<rect x="7" y="5" fill="#4D4D4D" width="1" height="1"/>
	<rect x="7" y="4" fill="#333333" width="1" height="1"/>
	<rect x="7" y="3" fill="#4D4D4D" width="1" height="1"/>
	<rect x="7" y="2" fill="#666666" width="1" height="1"/>
	<rect x="7" y="1" fill="#555555" width="1" height="1"/>
	<rect x="7" fill="#555555" width="1" height="1"/>
	<rect x="6" y="15" fill="#666666" width="1" height="1"/>
	<rect x="6" y="6" fill="#333333" width="1" height="1"/>
	<rect x="6" y="5" fill="#4D4D4D" width="1" height="1"/>
	<rect x="6" y="4" fill="#4D4D4D" width="1" height="1"/>
	<rect x="6" y="3" fill="#666666" width="1" height="1"/>
	<rect x="6" y="2" fill="#666666" width="1" height="1"/>
	<rect x="5" y="15" fill="#666666" width="1" height="1"/>
	<rect x="5" y="6" fill="#4D4D4D" width="1" height="1"/>
	<rect x="5" y="5" fill="#4D4D4D" width="1" height="1"/>
	<rect x="5" y="4" fill="#4D4D4D" width="1" height="1"/>
	<rect x="5" y="3" fill="#666666" width="1" height="1"/>
	<rect x="5" y="1" fill="#666666" width="1" height="1"/>
	<rect x="4" y="16" fill="#333333" width="1" height="1"/>
	<rect x="4" y="14" fill="#666666" width="1" height="1"/>
	<rect x="4" y="6" fill="#4D4D4D" width="1" height="1"/>
	<rect x="4" y="5" fill="#4D4D4D" width="1" height="1"/>
	<rect x="4" y="4" fill="#666666" width="1" height="1"/>
	<rect x="3" y="13" fill="#666666" width="1" height="1"/>
	<rect x="3" y="12" fill="#666666" width="1" height="1"/>
	<rect x="3" y="6" fill="#666666" width="1" height="1"/>
	<rect x="3" y="5" fill="#333333" width="1" height="1"/>
	<rect x="3" y="3" fill="#666666" width="1" height="1"/>
	<rect x="2" y="14" fill="#666666" width="1" height="1"/>
	<rect x="2" y="11" fill="#666666" width="1" height="1"/>
	<rect x="2" y="10" fill="#666666" width="1" height="1"/>
	<rect x="2" y="9" fill="#666666" width="1" height="1"/>
	<rect x="2" y="8" fill="#666666" width="1" height="1"/>
	<rect x="2" y="7" fill="#1A1A1A" width="1" height="1"/>
	<rect x="2" y="5" fill="#333333" width="1" height="1"/>
	<rect x="2" y="2" fill="#666666" width="1" height="1"/>
	<rect x="1" y="15" fill="#666666" width="1" height="1"/>
	<rect x="1" y="12" fill="#666666" width="1" height="1"/>
	<rect x="1" y="10" fill="#4D4D4D" width="1" height="1"/>
	<rect x="1" y="8" fill="#666666" width="1" height="1"/>
	<rect x="1" y="6" fill="#1A1A1A" width="1" height="1"/>
	<rect y="10" fill="#4D4D4D" width="1" height="1"/>
	<rect y="5" fill="#1A1A1A" width="1" height="1"/>
</g>
</svg>
